<svg width="143" height="58" viewBox="0 0 143 58" fill="none" xmlns="http://www.w3.org/2000/svg">
<path d="M3.24 37V11.296H19.476V15.796H8.676V21.16H10.836C13.26 21.16 15.24 21.496 16.776 22.168C18.336 22.84 19.488 23.764 20.232 24.94C20.976 26.116 21.348 27.46 21.348 28.972C21.348 30.652 20.976 32.092 20.232 33.292C19.488 34.492 18.336 35.416 16.776 36.064C15.216 36.688 13.2 37 10.728 37H3.24ZM10.512 32.536C12.168 32.536 13.464 32.272 14.4 31.744C15.36 31.216 15.84 30.292 15.84 28.972C15.84 28.06 15.6 27.364 15.12 26.884C14.664 26.404 14.004 26.08 13.14 25.912C12.3 25.72 11.28 25.624 10.08 25.624H8.676V32.536H10.512ZM26.197 11.296H31.093V23.716C31.093 24.316 31.081 24.988 31.057 25.732C31.033 26.476 31.009 27.208 30.985 27.928C30.961 28.624 30.937 29.236 30.913 29.764C30.889 30.268 30.865 30.616 30.841 30.808H30.949L42.829 11.296H49.345V37H44.485V24.652C44.485 24.004 44.497 23.296 44.521 22.528C44.545 21.736 44.569 20.98 44.593 20.26C44.641 19.54 44.677 18.916 44.701 18.388C44.749 17.836 44.785 17.476 44.809 17.308H44.665L32.749 37H26.197V11.296ZM66.7058 37L60.5138 16.84H60.3698C60.3938 17.32 60.4298 18.04 60.4778 19C60.5258 19.96 60.5738 20.992 60.6218 22.096C60.6698 23.176 60.6938 24.16 60.6938 25.048V37H55.8338V11.296H63.2498L69.3338 30.952H69.4418L75.8858 11.296H83.3018V37H78.2258V24.832C78.2258 24.016 78.2378 23.08 78.2618 22.024C78.3098 20.968 78.3458 19.972 78.3698 19.036C78.4178 18.076 78.4538 17.356 78.4778 16.876H78.3338L71.7098 37H66.7058Z" fill="white"/>
<path d="M4.068 55V46.48H4.908V50.272H6.192L9.12 46.48H10.092L6.888 50.608L10.296 55H9.264L6.216 51.04H4.908V55H4.068ZM15.7535 46.48H16.4615L20.0015 55H19.1135L18.0095 52.336H14.1815L13.0895 55H12.1895L15.7535 46.48ZM17.8175 51.676L16.1015 47.464L14.3615 51.676H17.8175ZM30.2108 55V48.064L27.1268 53.452H26.5988L23.5028 48.064V55H22.6628V46.48H23.5268L26.8508 52.312L30.1988 46.48H31.0508V55H30.2108ZM34.6263 55V46.48H41.0583V55H40.2183V47.224H35.4663V55H34.6263ZM45.5687 55.024V54.316H46.1087C46.2927 54.316 46.4287 54.264 46.5167 54.16C46.6127 54.056 46.7167 53.9 46.8287 53.692L47.2007 52.912L43.5647 46.48H44.4887L47.5847 52.06L50.1647 46.48H51.0407L47.4767 54.1C47.3167 54.428 47.1527 54.664 46.9847 54.808C46.8167 54.952 46.5807 55.024 46.2767 55.024H45.5687ZM52.9032 50.68C52.9032 50.16 52.9912 49.652 53.1672 49.156C53.3512 48.652 53.6152 48.196 53.9592 47.788C54.3032 47.372 54.7272 47.044 55.2312 46.804C55.7352 46.556 56.3072 46.432 56.9472 46.432C57.7072 46.432 58.3552 46.608 58.8912 46.96C59.4352 47.304 59.8352 47.748 60.0912 48.292L59.4312 48.7C59.2472 48.324 59.0152 48.028 58.7352 47.812C58.4552 47.588 58.1552 47.428 57.8352 47.332C57.5232 47.236 57.2112 47.188 56.8992 47.188C56.3872 47.188 55.9352 47.292 55.5432 47.5C55.1512 47.7 54.8192 47.972 54.5472 48.316C54.2832 48.652 54.0832 49.032 53.9472 49.456C53.8112 49.872 53.7432 50.296 53.7432 50.728C53.7432 51.2 53.8232 51.652 53.9832 52.084C54.1432 52.516 54.3672 52.9 54.6552 53.236C54.9432 53.564 55.2792 53.828 55.6632 54.028C56.0552 54.22 56.4792 54.316 56.9352 54.316C57.2552 54.316 57.5832 54.26 57.9192 54.148C58.2552 54.036 58.5672 53.864 58.8552 53.632C59.1512 53.4 59.3872 53.1 59.5632 52.732L60.2592 53.092C60.0832 53.516 59.8112 53.876 59.4432 54.172C59.0752 54.468 58.6632 54.692 58.2072 54.844C57.7592 54.996 57.3192 55.072 56.8872 55.072C56.3032 55.072 55.7672 54.948 55.2792 54.7C54.7912 54.444 54.3672 54.108 54.0072 53.692C53.6552 53.268 53.3832 52.796 53.1912 52.276C52.9992 51.748 52.9032 51.216 52.9032 50.68ZM67.6324 55V46.48H73.3444V47.224H68.4724V50.188H71.2804C72.2164 50.188 72.9084 50.408 73.3564 50.848C73.8044 51.28 74.0284 51.844 74.0284 52.54C74.0284 52.996 73.9284 53.412 73.7284 53.788C73.5364 54.156 73.2404 54.452 72.8404 54.676C72.4484 54.892 71.9524 55 71.3524 55H67.6324ZM68.4724 54.256H71.2564C71.7204 54.256 72.0924 54.172 72.3724 54.004C72.6524 53.836 72.8564 53.62 72.9844 53.356C73.1124 53.084 73.1764 52.804 73.1764 52.516C73.1764 52.228 73.1204 51.96 73.0084 51.712C72.8964 51.456 72.6964 51.252 72.4084 51.1C72.1284 50.94 71.7324 50.86 71.2204 50.86H68.4724V54.256ZM77.8365 55.024V54.316H78.3765C78.5605 54.316 78.6965 54.264 78.7845 54.16C78.8805 54.056 78.9845 53.9 79.0965 53.692L79.4685 52.912L75.8325 46.48H76.7565L79.8525 52.06L82.4325 46.48H83.3085L79.7445 54.1C79.5845 54.428 79.4205 54.664 79.2525 54.808C79.0845 54.952 78.8485 55.024 78.5445 55.024H77.8365ZM85.123 56.632V54.256H85.483C85.707 54.256 85.903 54.164 86.071 53.98C86.247 53.796 86.395 53.5 86.515 53.092C86.643 52.676 86.743 52.12 86.815 51.424C86.895 50.728 86.951 49.864 86.983 48.832L87.043 46.48H92.143V54.256H93.163V56.632H92.419V55H85.867V56.632H85.123ZM86.683 54.256H91.303V47.224H87.811L87.763 48.928C87.739 50.008 87.683 50.912 87.595 51.64C87.515 52.36 87.399 52.932 87.247 53.356C87.095 53.772 86.907 54.072 86.683 54.256ZM97.0993 55.024V54.316H97.6393C97.8233 54.316 97.9593 54.264 98.0473 54.16C98.1433 54.056 98.2473 53.9 98.3593 53.692L98.7313 52.912L95.0953 46.48H96.0193L99.1153 52.06L101.695 46.48H102.571L99.0073 54.1C98.8473 54.428 98.6833 54.664 98.5153 54.808C98.3473 54.952 98.1113 55.024 97.8073 55.024H97.0993ZM114.538 56.62V55H104.998V46.48H105.838V54.256H109.21V46.48H110.05V54.256H113.434V46.48H114.262V54.256H115.294V56.62H114.538ZM124.021 54.256V55H118.297V46.48H123.913V47.224H119.137V50.296H123.301V51.004H119.137V54.256H124.021ZM127.05 55V46.48H131.886V47.224H127.89V55H127.05ZM138.109 55.06C137.509 55.06 136.965 54.94 136.477 54.7C135.989 54.46 135.569 54.136 135.217 53.728C134.865 53.312 134.593 52.848 134.401 52.336C134.209 51.816 134.113 51.284 134.113 50.74C134.113 50.172 134.213 49.632 134.413 49.12C134.613 48.6 134.893 48.14 135.253 47.74C135.621 47.332 136.049 47.012 136.537 46.78C137.025 46.54 137.553 46.42 138.121 46.42C138.721 46.42 139.265 46.544 139.753 46.792C140.241 47.04 140.657 47.372 141.001 47.788C141.353 48.204 141.625 48.668 141.817 49.18C142.009 49.692 142.105 50.216 142.105 50.752C142.105 51.32 142.005 51.864 141.805 52.384C141.605 52.896 141.325 53.356 140.965 53.764C140.605 54.164 140.181 54.48 139.693 54.712C139.205 54.944 138.677 55.06 138.109 55.06ZM134.953 50.74C134.953 51.204 135.029 51.652 135.181 52.084C135.333 52.508 135.549 52.888 135.829 53.224C136.109 53.552 136.441 53.816 136.825 54.016C137.217 54.208 137.645 54.304 138.109 54.304C138.597 54.304 139.033 54.204 139.417 54.004C139.809 53.796 140.141 53.524 140.413 53.188C140.693 52.844 140.905 52.46 141.049 52.036C141.193 51.612 141.265 51.18 141.265 50.74C141.265 50.276 141.189 49.832 141.037 49.408C140.885 48.984 140.665 48.604 140.377 48.268C140.097 47.932 139.765 47.668 139.381 47.476C138.997 47.284 138.573 47.188 138.109 47.188C137.629 47.188 137.193 47.288 136.801 47.488C136.417 47.688 136.085 47.96 135.805 48.304C135.533 48.64 135.321 49.02 135.169 49.444C135.025 49.868 134.953 50.3 134.953 50.74Z" fill="white"/>
</svg>
